<?xml version="1.0" encoding="UTF-8"?>
<svg id="Layer_1" data-name="Layer 1" xmlns="http://www.w3.org/2000/svg" xmlns:xlink="http://www.w3.org/1999/xlink" viewBox="500 700 1000 800">
  <defs>
    <style>
      .cls-1 {
        fill: url(#linear-gradient-2);
      }

      .cls-2 {
        fill: url(#linear-gradient);
      }
    </style>
    <linearGradient id="linear-gradient" x1="835.69" y1="1076.82" x2="1300.04" y2="1076.82" gradientUnits="userSpaceOnUse">
      <stop offset="0" stop-color="#068242"/>
      <stop offset="1" stop-color="#005e31"/>
    </linearGradient>
    <linearGradient id="linear-gradient-2" x1="724.97" y1="923.09" x2="1221.66" y2="923.09" gradientUnits="userSpaceOnUse">
      <stop offset="0" stop-color="#f7ce6c"/>
      <stop offset="1" stop-color="#cb8a2e"/>
    </linearGradient>
  </defs>
  <path class="cls-2" d="m708.13,1101.91v52.57h40.17v-52.57h42.83v52.57h40.17v-52.57h161.57c12.2,82.64,83.54,146.25,169.5,146.25,114.32,2.05,200.1-116.9,162.87-224.53-11.2,18.17-25.4,34.34-41.87,47.75,3.32,68.57-52.31,126.76-121,126.57-66.78,0-121.15-54.37-121.15-121.15.08-103.55,122.84-159.29,200.68-91.33,10.64-13.56,17.87-29.87,20.48-47.7-102.84-75.14-251.43-12.04-269.51,113.92h-326.9v50.21h42.17Z"/>
  <path class="cls-1" d="m999.54,976.5c11.25-18.12,25.4-34.19,41.82-47.6-3.47-68.67,52.24-127.07,121-126.87,66.83,0,121.15,54.37,121.15,121.15.26,103.35-123.26,159.34-200.68,91.33-10.64,13.56-17.92,29.92-20.48,47.75,83.48,61.76,207.59,30.97,253.14-62.26,57.83-111.22-27.51-249.78-153.13-248.17-85.95,0-157.3,63.66-169.5,146.25h-161.57v-52.52h-40.17v52.52h-42.83v-52.52h-40.17v52.52h-42.17v50.21h326.9c1.41,9.69,3.67,19.13,6.68,28.22Z"/>
</svg>