<?xml version="1.0" encoding="UTF-8"?>
<svg id="Layer_1" data-name="Layer 1" xmlns="http://www.w3.org/2000/svg" xmlns:xlink="http://www.w3.org/1999/xlink" viewBox="0 0 2000 2000">
  <defs>
    <style>
      .cls-1 {
        fill: url(#linear-gradient-2);
      }

      .cls-2 {
        fill: url(#linear-gradient-3);
      }

      .cls-3 {
        fill: url(#linear-gradient);
      }

      .cls-4 {
        fill: url(#linear-gradient-4);
      }
    </style>
    <linearGradient id="linear-gradient" x1="882.72" y1="1037.73" x2="882.72" y2="1461.12" gradientUnits="userSpaceOnUse">
      <stop offset="0" stop-color="#f7ce6c"/>
      <stop offset="1" stop-color="#cb8a2e"/>
    </linearGradient>
    <linearGradient id="linear-gradient-2" x1="1126.99" y1="1037.73" x2="1126.99" y2="1461.12" xlink:href="#linear-gradient"/>
    <linearGradient id="linear-gradient-3" x1="835.69" y1="890.94" x2="1300.04" y2="890.94" gradientUnits="userSpaceOnUse">
      <stop offset="0" stop-color="#068242"/>
      <stop offset="1" stop-color="#005e31"/>
    </linearGradient>
    <linearGradient id="linear-gradient-4" x1="724.97" y1="737.22" x2="1221.66" y2="737.22" xlink:href="#linear-gradient"/>
  </defs>
  <g>
    <path class="cls-3" d="m737.51,1135.1h122.96v13.31c-34.59,3.31-40.64,6.3-40.64,45.9v77.01c9.07-1.22,19.49-8.42,32.85-21.25,26.15-24.96,54.41-54.4,73.8-76.65,12.99-15.04,11.41-21.04-8.17-23.74l-11.86-1.27v-13.31h110.79v13.31c-33.23,4.05-45.81,6.3-75.61,37.24-14.22,14.01-46.93,46.07-74.09,73.18,33.12,40.3,80.35,96.15,105.75,124.27,21.8,24.16,27.64,27.68,54.63,30.91v13.31h-75.09c-31.78-36.69-68.77-82.24-108.07-129.49-10.18-12.75-17.74-13.97-24.93-13.36v84.38c0,38.95,3.89,41.77,40.71,45.16v13.31h-123.03v-13.31c36.3-3.23,40.06-6.21,40.06-45.16v-174.54c0-39.97-3.39-43.12-40.06-45.9v-13.31Z"/>
    <path class="cls-1" d="m1262.49,1354.42c-6.29,21.75-17.98,54.43-24.8,68.7-12.79,2.69-48.18,10.95-82.36,10.95-109.87,0-163.83-72.61-163.83-150,0-91.96,69.93-155.27,171.93-155.27,38.75,0,70.79,8.34,84.97,10.42,1.88,20.4,5.03,48.5,8.54,70.5l-14.66,3.15c-9.07-31.01-20.34-49.12-43.44-58.56-11.53-5.24-29.55-8.14-45.75-8.14-72.56,0-110.54,54.77-110.54,128.3,0,85.96,44.47,141.71,115.28,141.71,44.41,0,67.37-20.89,90.54-66.65l14.14,4.9Z"/>
  </g>
  <g>
    <path class="cls-2" d="m708.13,916.04v52.57h40.17v-52.57h42.83v52.57h40.17v-52.57h161.57c12.2,82.64,83.54,146.25,169.5,146.25,114.32,2.05,200.1-116.9,162.87-224.53-11.2,18.17-25.4,34.34-41.87,47.75,3.32,68.57-52.31,126.76-121,126.57-66.78,0-121.15-54.37-121.15-121.15.08-103.55,122.84-159.29,200.68-91.33,10.64-13.56,17.87-29.87,20.48-47.7-102.84-75.14-251.43-12.04-269.51,113.92h-326.9v50.21h42.17Z"/>
    <path class="cls-4" d="m999.54,790.62c11.25-18.12,25.4-34.19,41.82-47.6-3.47-68.67,52.24-127.07,121-126.87,66.83,0,121.15,54.37,121.15,121.15.26,103.35-123.26,159.34-200.68,91.33-10.64,13.56-17.92,29.92-20.48,47.75,83.48,61.76,207.59,30.97,253.14-62.26,57.83-111.22-27.51-249.78-153.13-248.17-85.95,0-157.3,63.66-169.5,146.25h-161.57v-52.52h-40.17v52.52h-42.83v-52.52h-40.17v52.52h-42.17v50.21h326.9c1.41,9.69,3.67,19.13,6.68,28.22Z"/>
  </g>
</svg>